<svg width="1355" height="1024" viewBox="0 0 1355 1024" fill="none" xmlns="http://www.w3.org/2000/svg">
<g clip-path="url(#clip0_38_1432)">
<path d="M-1.93193e-05 441.975L0 -5.92289e-05L1322.26 -1.43103e-06L1324.99 2.72824C1334.08 44.5613 1338.63 86.3943 1336.81 124.59C1332.27 222.806 1264.06 343.758 1168.57 388.32C1194.04 514.728 1161.3 645.684 1044.9 722.075C961.232 778.458 863.017 787.552 781.171 752.085C755.708 863.943 697.507 964.888 566.554 993.08C421.96 1025.82 328.292 946.7 267.362 838.48C239.171 868.49 206.433 892.135 171.876 905.776C139.138 919.417 99.1241 924.874 57.292 914.87C36.3758 910.323 17.2785 903.048 0.909385 895.773L0.909405 441.975L-1.93193e-05 441.975Z" fill="#E2E2E2" fill-opacity="0.5"/>
</g>
<defs>
<clipPath id="clip0_38_1432">
<rect width="1024" height="1355" fill="white" transform="translate(1355) rotate(90)"/>
</clipPath>
</defs>
</svg>
