<svg xmlns="http://www.w3.org/2000/svg" viewBox="0 0 600 149">
<path fill="#F15B2B" d="M95.4,47.4h12.4v13.4c1-2.6,3.5-5.8,7.4-9.5c4-3.7,8.5-5.6,13.7-5.6c0.2,0,0.7,0,1.2,0.1c0.6,0,1.6,0.1,3,0.3
	v13.7c-0.8-0.1-1.5-0.2-2.1-0.3c-0.7,0-1.4-0.1-2.1-0.1c-6.6,0-11.6,2.1-15.1,6.3c-3.5,4.2-5.3,9.1-5.3,14.6v44.5h-13V47.4z"/>
<path fill="#F15B2B" d="M181.3,77.9c3-0.4,5-1.6,6-3.8c0.6-1.2,0.9-2.8,0.9-5c0-4.5-1.6-7.7-4.7-9.7c-3.1-2-7.7-3-13.5-3
	c-6.8,0-11.6,1.8-14.4,5.5c-1.6,2-2.6,5.1-3.1,9.1h-12.1c0.2-9.6,3.3-16.2,9.3-20c5.9-3.7,12.8-5.6,20.7-5.6
	c9.1,0,16.5,1.7,22.2,5.2c5.6,3.5,8.4,8.9,8.4,16.2v44.6c0,1.3,0.3,2.4,0.8,3.3c0.6,0.8,1.7,1.2,3.5,1.2c0.6,0,1.2,0,2-0.1
	c0.7-0.1,1.5-0.2,2.3-0.3v9.6c-2,0.6-3.6,0.9-4.6,1.1c-1.1,0.1-2.5,0.2-4.3,0.2c-4.5,0-7.7-1.6-9.8-4.8c-1.1-1.7-1.8-4.1-2.2-7.2
	c-2.7,3.5-6.5,6.5-11.4,9c-5,2.6-10.4,3.8-16.4,3.8c-7.2,0-13-2.2-17.6-6.5c-4.6-4.4-6.8-9.8-6.8-16.3c0-7.2,2.2-12.7,6.7-16.7
	c4.5-3.9,10.4-6.4,17.6-7.3L181.3,77.9z M153.9,113.1c2.7,2.2,6,3.2,9.8,3.2c4.6,0,9-1.1,13.3-3.2c7.2-3.5,10.8-9.3,10.8-17.2V85.4
	c-1.6,1-3.6,1.9-6.1,2.5c-2.5,0.7-5,1.2-7.4,1.4l-7.9,1c-4.7,0.6-8.3,1.6-10.6,3c-4,2.3-6,5.9-6,10.8
	C149.8,108,151.2,110.9,153.9,113.1"/>
<path fill="#F15B2B" d="M217.7,47.4h12.4v11c3.7-4.5,7.5-7.8,11.6-9.8c4.1-2,8.6-3,13.7-3c11,0,18.4,3.8,22.3,11.5
	c2.1,4.2,3.2,10.2,3.2,18v49.7h-13.2V76c0-4.7-0.7-8.5-2.1-11.4c-2.3-4.8-6.5-7.2-12.6-7.2c-3.1,0-5.6,0.3-7.6,0.9
	c-3.6,1.1-6.7,3.2-9.4,6.4c-2.2,2.6-3.6,5.2-4.2,7.9c-0.7,2.7-1,6.6-1,11.7v40.5h-13V47.4z"/>
<path fill="#F15B2B" d="M338.1,49.8c2.3,1.4,4.9,4,7.8,7.6V18.2h12.5v106.5h-11.7V114c-3,4.8-6.6,8.2-10.7,10.3
	c-4.1,2.1-8.9,3.2-14.2,3.2c-8.6,0-16-3.6-22.3-10.9c-6.3-7.3-9.4-16.9-9.4-28.9c0-11.3,2.9-21,8.6-29.3
	c5.7-8.3,13.9-12.4,24.6-12.4C329.2,46,334.2,47.2,338.1,49.8 M309.1,107.8c3.5,5.6,9.1,8.4,16.8,8.4c6,0,10.9-2.6,14.8-7.8
	c3.9-5.2,5.8-12.6,5.8-22.3c0-9.8-2-17-6-21.7c-4-4.7-8.9-7-14.7-7c-6.5,0-11.8,2.5-15.9,7.5c-4.1,5-6.1,12.4-6.1,22.1
	C303.8,95.3,305.6,102.2,309.1,107.8"/>
<path fill="#424143" d="M372.4,18.2h12.6v38.5c2.9-3.7,6.3-6.5,10.2-8.5c4-2,8.3-2.9,12.9-2.9c9.7,0,17.5,3.3,23.5,9.9
	c6,6.6,9,16.4,9,29.3c0,12.2-3,22.4-8.9,30.5c-5.9,8.1-14.2,12.1-24.7,12.1c-5.9,0-10.9-1.4-14.9-4.3c-2.4-1.7-5-4.4-7.8-8.1v9.9
	h-12V18.2z M422.1,107.4c3.5-5.6,5.3-13,5.3-22.1c0-8.1-1.8-14.9-5.3-20.2c-3.5-5.3-8.7-8-15.5-8c-5.9,0-11.2,2.2-15.6,6.6
	c-4.5,4.4-6.7,11.6-6.7,21.7c0,7.3,0.9,13.2,2.8,17.7c3.4,8.5,9.8,12.8,19.2,12.8C413.4,115.7,418.6,112.9,422.1,107.4"/>
<path fill="#424143" d="M451.4,18.6h13.2v14.7h-13.2V18.6z M451.4,47.7h13.2v77h-13.2V47.7z"/>
<path fill="#424143" d="M482.4,25.8h13.2v21.6h12.4V58h-12.4v50.5c0,2.7,0.9,4.5,2.7,5.4c1,0.5,2.7,0.8,5.1,0.8c0.6,0,1.3,0,2,0
	c0.7,0,1.6-0.1,2.5-0.2v10.3c-1.5,0.4-3,0.7-4.7,0.9c-1.6,0.2-3.4,0.3-5.2,0.3c-6.1,0-10.2-1.6-12.4-4.7c-2.2-3.1-3.3-7.1-3.3-12.1
	V58h-10.5V47.4h10.5V25.8z"/>
<path fill="#424143" d="M564.3,49.5c5.1,2.6,9,5.9,11.7,10c2.6,3.9,4.3,8.5,5.2,13.7c0.8,3.6,1.2,9.3,1.2,17.1H526
	c0.2,7.9,2.1,14.2,5.5,19c3.4,4.8,8.8,7.1,16,7.1c6.7,0,12.1-2.3,16.1-6.8c2.2-2.6,3.8-5.6,4.8-9.1h12.8c-0.3,2.8-1.5,6-3.4,9.5
	c-1.9,3.5-4,6.3-6.4,8.6c-3.9,3.9-8.8,6.5-14.6,7.8c-3.1,0.8-6.6,1.2-10.5,1.2c-9.6,0-17.7-3.5-24.3-10.5c-6.7-7-10-16.8-10-29.5
	c0-12.4,3.4-22.5,10.1-30.3c6.7-7.8,15.5-11.6,26.3-11.6C553.9,45.6,559.2,46.9,564.3,49.5 M569,79.9c-0.5-5.6-1.7-10.1-3.7-13.5
	c-3.5-6.3-9.4-9.4-17.7-9.4c-5.9,0-10.9,2.2-14.9,6.5c-4,4.3-6.1,9.8-6.4,16.4H569z"/>
<path fill="#F15B2B" d="M75.4,55.4c-6-6.6-13.9-9.9-23.5-9.9c-4.6,0-8.9,1-12.9,2.9c-4,2-7.4,4.8-10.2,8.5V18.4H16.1v52.1l0.1-0.1
	c1.8-0.4,3.6-0.6,5.2-0.5c4.2,0.2,9.4,3.1,11.3,7.2c5.4-1.1,11,0.3,14.3,5.3c2.4,3.6,2.8,7.8,1.3,11.3c4.8,1.1,9.1,3.6,10.3,9.2
	c1.4,6.2-2,10.2-6.6,12.8c1.3,1.2,2.3,2.6,2.9,4.1c0.6,1.4,0.8,3.1,0.4,4.9c-0.2,0.9-0.5,1.7-0.8,2.4c8.8-0.8,15.9-4.8,21.2-12
	c5.9-8.1,8.9-18.3,8.9-30.5C84.5,71.8,81.5,62.1,75.4,55.4"/>
</svg>
