<svg xmlns="http://www.w3.org/2000/svg" width="22.400" height="17.580" viewBox="0 0 22.400 17.580" fill="none">
  <path d="M 12.469 0.468 C 12.769 0.169 13.176 0 13.6 0 C 14.024 0 14.431 0.169 14.731 0.468 L 21.931 7.668 C 22.231 7.969 22.4 8.375 22.4 8.8 C 22.4 9.224 22.231 9.631 21.931 9.931 L 14.731 17.131 C 14.429 17.422 14.025 17.584 13.606 17.58 C 13.186 17.576 12.785 17.408 12.488 17.111 C 12.192 16.815 12.023 16.413 12.02 15.994 C 12.016 15.574 12.177 15.17 12.469 14.868 L 16.8 10.4 L 1.6 10.4 C 1.176 10.4 0.769 10.231 0.469 9.931 C 0.169 9.631 0 9.224 0 8.8 C 0 8.375 0.169 7.968 0.469 7.668 C 0.769 7.368 1.176 7.2 1.6 7.2 L 16.8 7.2 L 12.469 2.731 C 12.169 2.431 12 2.024 12 1.6 C 12 1.175 12.169 0.769 12.469 0.468 Z" fill="#FF6426" fill-rule="nonzero"></path>
</svg>