<svg xmlns="http://www.w3.org/2000/svg" width="343" height="545" viewBox="0 0 343 545" fill="none">
  <path d="M 296.933 185.511 C 266.889 152.42 227.331 135.874 179.261 135.874 C 156.228 135.874 134.696 140.888 114.667 150.414 C 94.638 160.442 77.613 174.48 63.593 193.031 L 63.593 0 L 0 0 L 0 261.219 L 0.501 260.718 C 9.514 258.712 18.527 257.709 26.539 258.211 C 47.569 259.213 73.607 273.753 83.121 294.31 C 110.161 288.795 138.201 295.814 154.726 320.883 C 166.743 338.933 168.746 359.991 161.235 377.539 C 185.27 383.054 206.801 395.589 212.81 423.666 C 219.82 454.752 202.796 474.807 179.762 487.843 C 186.272 493.859 191.279 500.879 194.283 508.399 C 197.288 515.419 198.289 523.942 196.286 532.967 C 195.285 537.479 193.782 541.49 192.28 545 C 236.345 540.989 271.896 520.934 298.435 484.834 C 327.978 444.223 343 393.082 343 331.914 C 342.499 267.737 327.477 219.103 296.933 185.511 Z" fill="#FF6426" fill-rule="nonzero"></path>
</svg>