<svg xmlns="http://www.w3.org/2000/svg" width="24" height="24" viewBox="0 0 24 24" fill="#5E616E">
<path transform="translate(2 2)" fill-rule="evenodd" d="M 14.017 0 L 5.947 0 C 4.37 0.002 2.858 0.629 1.744 1.744 C 0.629 2.859 0.002 4.371 0 5.948 L 0 14.018 C 0.002 15.595 0.629 17.107 1.744 18.221 C 2.859 19.336 4.371 19.963 5.948 19.965 L 14.018 19.965 C 15.595 19.963 17.107 19.336 18.221 18.221 C 19.336 17.106 19.963 15.594 19.965 14.017 L 19.965 5.947 C 19.963 4.37 19.336 2.858 18.221 1.744 C 17.106 0.629 15.594 0.002 14.017 0 L 14.017 0 Z M 17.957 14.017 C 17.957 14.534 17.855 15.047 17.657 15.525 C 17.459 16.003 17.169 16.437 16.803 16.803 C 16.437 17.169 16.003 17.459 15.525 17.657 C 15.047 17.855 14.534 17.957 14.017 17.957 L 5.947 17.957 C 4.902 17.957 3.9 17.542 3.162 16.803 C 2.423 16.064 2.008 15.062 2.008 14.017 L 2.008 5.947 C 2.008 4.902 2.423 3.9 3.162 3.162 C 3.901 2.423 4.903 2.008 5.948 2.008 L 14.018 2.008 C 15.063 2.008 16.065 2.423 16.803 3.162 C 17.542 3.901 17.957 4.903 17.957 5.948 L 17.957 14.018 L 17.957 14.017 Z"></path>
<path transform="translate(6.82 6.819)" fill-rule="evenodd" d="M 5.162 0 C 3.793 0.002 2.482 0.547 1.514 1.515 C 0.546 2.482 0.002 3.794 0 5.163 C 0.002 6.532 0.546 7.844 1.514 8.812 C 2.482 9.78 3.794 10.325 5.163 10.327 C 6.532 10.325 7.845 9.781 8.813 8.813 C 9.781 7.845 10.325 6.532 10.327 5.163 C 10.325 3.794 9.78 2.482 8.812 1.514 C 7.843 0.547 6.531 0.002 5.162 0.001 L 5.162 0 Z M 5.162 8.319 C 4.325 8.319 3.523 7.987 2.931 7.395 C 2.339 6.803 2.007 6.001 2.007 5.164 C 2.007 4.327 2.339 3.525 2.931 2.933 C 3.523 2.341 4.325 2.009 5.162 2.009 C 5.999 2.009 6.801 2.341 7.393 2.933 C 7.985 3.525 8.317 4.327 8.317 5.164 C 8.317 6.001 7.985 6.803 7.393 7.395 C 6.801 7.987 5.999 8.319 5.162 8.319 L 5.162 8.319 Z"></path>
<circle cx="17.156" cy="6.858" r="1.237"></circle>
</svg>