<svg xmlns="http://www.w3.org/2000/svg" width="24" height="24" viewBox="0 0 24 24" fill="#5E616E">
<path transform="translate(2 2.026)" fill-rule="evenodd" d="M 19.959 11.693 L 19.959 19.072 L 15.681 19.072 L 15.681 12.187 C 15.681 10.457 15.062 9.277 13.514 9.277 C 12.332 9.277 11.628 10.073 11.319 10.842 C 11.206 11.117 11.177 11.5 11.177 11.885 L 11.177 19.072 L 6.897 19.072 C 6.897 19.072 6.955 7.412 6.897 6.203 L 11.177 6.203 L 11.177 8.027 L 11.149 8.069 L 11.177 8.069 L 11.177 8.027 C 11.745 7.152 12.76 5.901 15.033 5.901 C 17.848 5.901 19.959 7.741 19.959 11.693 L 19.959 11.693 Z M 2.421 0 C 0.958 0 0 0.96 0 2.223 C 0 3.458 0.93 4.447 2.365 4.447 L 2.393 4.447 C 3.886 4.447 4.813 3.458 4.813 2.223 C 4.787 0.96 3.887 0 2.422 0 L 2.421 0 Z M 0.254 19.072 L 4.532 19.072 L 4.532 6.203 L 0.254 6.203 L 0.254 19.072 Z"></path>
</svg>