<svg xmlns="http://www.w3.org/2000/svg" width="145" height="36" viewBox="0 0 145 36">
<path transform="translate(23.055 11.042)" d="M 0 0.411 L 2.997 0.411 L 2.997 3.648 C 3.238 3.02 3.842 2.247 4.785 1.353 C 5.752 0.459 6.839 0 8.096 0 C 8.144 0 8.265 0 8.386 0.024 C 8.531 0.024 8.773 0.048 9.111 0.097 L 9.111 3.407 C 8.918 3.383 8.748 3.358 8.603 3.334 C 8.434 3.334 8.265 3.31 8.096 3.31 C 6.501 3.31 5.293 3.817 4.447 4.832 C 3.601 5.847 3.166 7.031 3.166 8.36 L 3.166 19.111 L 0.024 19.111 L 0.024 0.411 L 0 0.411 Z" fill="#FF6426"></path>
<path transform="translate(32.987 10.969)" d="M 10.827 7.852 C 11.552 7.756 12.035 7.466 12.277 6.934 C 12.422 6.644 12.494 6.258 12.494 5.726 C 12.494 4.639 12.108 3.866 11.358 3.383 C 10.609 2.899 9.497 2.658 8.096 2.658 C 6.452 2.658 5.293 3.093 4.616 3.987 C 4.229 4.47 3.987 5.219 3.867 6.185 L 0.942 6.185 C 0.991 3.866 1.74 2.271 3.19 1.353 C 4.616 0.459 6.283 0 8.192 0 C 10.392 0 12.18 0.411 13.558 1.256 C 14.911 2.102 15.587 3.407 15.587 5.17 L 15.587 15.946 C 15.587 16.26 15.66 16.526 15.781 16.744 C 15.926 16.937 16.192 17.034 16.627 17.034 C 16.772 17.034 16.917 17.034 17.11 17.009 C 17.279 16.985 17.473 16.961 17.666 16.937 L 17.666 19.256 C 17.183 19.401 16.796 19.474 16.554 19.522 C 16.288 19.546 15.95 19.57 15.515 19.57 C 14.427 19.57 13.654 19.184 13.147 18.411 C 12.881 18 12.712 17.42 12.615 16.671 C 11.962 17.517 11.044 18.242 9.86 18.846 C 8.652 19.474 7.347 19.764 5.897 19.764 C 4.157 19.764 2.755 19.232 1.643 18.193 C 0.532 17.13 0 15.826 0 14.255 C 0 12.515 0.532 11.187 1.619 10.22 C 2.707 9.278 4.133 8.674 5.873 8.456 L 10.827 7.852 Z M 4.205 16.357 C 4.857 16.889 5.655 17.13 6.573 17.13 C 7.685 17.13 8.748 16.864 9.787 16.357 C 11.527 15.511 12.398 14.11 12.398 12.201 L 12.398 9.664 C 12.011 9.906 11.527 10.123 10.923 10.268 C 10.319 10.438 9.715 10.558 9.135 10.607 L 7.226 10.848 C 6.09 10.993 5.22 11.235 4.664 11.573 C 3.698 12.129 3.214 12.999 3.214 14.183 C 3.214 15.125 3.552 15.826 4.205 16.357 Z" fill="#FF6426"></path>
<path transform="translate(52.611 11.017)" d="M 0 0.435 L 2.997 0.435 L 2.997 3.093 C 3.891 2.005 4.809 1.208 5.8 0.725 C 6.791 0.242 7.878 0 9.111 0 C 11.769 0 13.558 0.918 14.5 2.779 C 15.008 3.793 15.273 5.243 15.273 7.128 L 15.273 19.136 L 12.083 19.136 L 12.083 7.345 C 12.083 6.209 11.914 5.291 11.576 4.591 C 11.02 3.431 10.005 2.851 8.531 2.851 C 7.782 2.851 7.177 2.923 6.694 3.068 C 5.824 3.334 5.075 3.842 4.423 4.615 C 3.891 5.243 3.553 5.871 3.408 6.523 C 3.238 7.176 3.166 8.118 3.166 9.35 L 3.166 19.136 L 0.024 19.136 L 0.024 0.435 L 0 0.435 Z" fill="#FF6426"></path>
<path transform="translate(70.108 4.397)" d="M 11.6 7.635 C 12.156 7.973 12.784 8.601 13.485 9.471 L 13.485 0 L 16.506 0 L 16.506 25.732 L 13.678 25.732 L 13.678 23.146 C 12.953 24.306 12.083 25.128 11.092 25.635 C 10.102 26.142 8.942 26.408 7.661 26.408 C 5.582 26.408 3.794 25.538 2.272 23.774 C 0.749 22.011 0 19.691 0 16.792 C 0 14.062 0.701 11.718 2.078 9.713 C 3.456 7.707 5.437 6.717 8.023 6.717 C 9.449 6.717 10.658 7.007 11.6 7.635 Z M 4.592 21.648 C 5.438 23.001 6.791 23.678 8.652 23.678 C 10.102 23.678 11.286 23.05 12.228 21.793 C 13.171 20.537 13.63 18.749 13.63 16.405 C 13.63 14.038 13.147 12.298 12.18 11.162 C 11.213 10.027 10.029 9.471 8.627 9.471 C 7.057 9.471 5.776 10.075 4.785 11.283 C 3.794 12.491 3.311 14.279 3.311 16.623 C 3.311 18.628 3.746 20.295 4.592 21.648 Z" fill="#FF6426"></path>
<path transform="translate(89.972 4.397)" d="M 0.024 0 L 3.069 0 L 3.069 9.302 C 3.77 8.408 4.592 7.732 5.534 7.248 C 6.501 6.765 7.54 6.548 8.652 6.548 C 10.996 6.548 12.881 7.345 14.331 8.94 C 15.781 10.534 16.506 12.902 16.506 16.019 C 16.506 18.966 15.781 21.431 14.355 23.388 C 12.929 25.345 10.923 26.311 8.386 26.311 C 6.96 26.311 5.752 25.973 4.785 25.272 C 4.205 24.862 3.577 24.209 2.9 23.315 L 2.9 25.707 L 0 25.707 L 0 0 L 0.024 0 Z M 12.035 21.552 C 12.881 20.199 13.316 18.411 13.316 16.212 C 13.316 14.255 12.881 12.612 12.035 11.332 C 11.189 10.051 9.933 9.399 8.289 9.399 C 6.863 9.399 5.583 9.93 4.519 10.993 C 3.432 12.056 2.9 13.796 2.9 16.236 C 2.9 18 3.118 19.426 3.577 20.513 C 4.398 22.566 5.945 23.605 8.217 23.605 C 9.932 23.557 11.189 22.881 12.035 21.552 Z" fill="#1F2024"></path>
<path transform="translate(109.088 4.494)" d="M 0 0 L 3.19 0 L 3.19 3.552 L 0 3.552 L 0 0 Z M 0 7.031 L 3.19 7.031 L 3.19 25.635 L 0 25.635 L 0 7.031 Z" fill="#1F2024"></path>
<path transform="translate(114.018 6.234)" d="M 2.562 0 L 5.752 0 L 5.752 5.219 L 8.748 5.219 L 8.748 7.78 L 5.752 7.78 L 5.752 19.981 C 5.752 20.634 5.969 21.068 6.404 21.286 C 6.646 21.407 7.057 21.479 7.637 21.479 C 7.782 21.479 7.951 21.479 8.12 21.479 C 8.289 21.479 8.507 21.455 8.724 21.431 L 8.724 23.919 C 8.362 24.016 7.999 24.089 7.588 24.137 C 7.202 24.185 6.767 24.209 6.332 24.209 C 4.858 24.209 3.867 23.823 3.335 23.074 C 2.803 22.325 2.538 21.358 2.538 20.15 L 2.538 7.78 L 0 7.78 L 0 5.219 L 2.538 5.219 L 2.538 0 L 2.562 0 Z" fill="#1F2024"></path>
<path transform="translate(123.733 11.04)" d="M 12.639 0.919 C 13.872 1.548 14.814 2.345 15.467 3.336 C 16.095 4.278 16.506 5.389 16.723 6.646 C 16.917 7.515 17.013 8.893 17.013 10.777 L 3.383 10.777 C 3.432 12.686 3.891 14.208 4.713 15.368 C 5.534 16.527 6.839 17.083 8.579 17.083 C 10.198 17.083 11.503 16.527 12.47 15.44 C 13.002 14.812 13.388 14.087 13.63 13.242 L 16.723 13.242 C 16.651 13.918 16.361 14.691 15.902 15.537 C 15.442 16.383 14.935 17.059 14.355 17.615 C 13.413 18.557 12.228 19.185 10.827 19.499 C 10.077 19.693 9.232 19.789 8.289 19.789 C 5.969 19.789 4.012 18.944 2.417 17.252 C 0.798 15.561 0 13.193 0 10.125 C 0 7.129 0.822 4.689 2.441 2.804 C 4.06 0.919 6.187 0.001 8.797 0.001 C 10.126 -0.023 11.407 0.291 12.639 0.919 Z M 13.775 8.264 C 13.654 6.911 13.364 5.824 12.881 5.003 C 12.035 3.48 10.609 2.731 8.603 2.731 C 7.177 2.731 5.969 3.263 5.003 4.302 C 4.036 5.341 3.528 6.67 3.456 8.264 L 13.775 8.264 Z" fill="#1F2024"></path>
<path transform="translate(3.891 4.446)" d="M 14.331 8.94 C 12.881 7.345 10.972 6.548 8.652 6.548 C 7.54 6.548 6.501 6.789 5.534 7.248 C 4.568 7.732 3.746 8.408 3.069 9.302 L 3.069 0 L 0 0 L 0 12.588 L 0.024 12.564 C 0.459 12.467 0.894 12.419 1.281 12.443 C 2.296 12.491 3.553 13.192 4.012 14.183 C 5.317 13.917 6.67 14.255 7.468 15.463 C 8.048 16.333 8.144 17.348 7.782 18.193 C 8.942 18.459 9.981 19.063 10.271 20.416 C 10.609 21.914 9.788 22.881 8.676 23.509 C 8.99 23.799 9.232 24.137 9.377 24.499 C 9.522 24.838 9.57 25.248 9.473 25.683 C 9.425 25.901 9.353 26.094 9.28 26.263 C 11.407 26.07 13.123 25.103 14.403 23.364 C 15.829 21.407 16.554 18.942 16.554 15.995 C 16.53 12.902 15.805 10.558 14.331 8.94 Z" fill="#FF6426"></path>
</svg>